<svg xmlns="http://www.w3.org/2000/svg" xmlns:xlink="http://www.w3.org/1999/xlink" width="500" zoomAndPan="magnify" viewBox="0 0 375 374.999991" height="500" preserveAspectRatio="xMidYMid meet" version="1.0"><defs><filter x="0%" y="0%" width="100%" height="100%" id="550c11843b"><feColorMatrix values="0 0 0 0 1 0 0 0 0 1 0 0 0 0 1 0 0 0 1 0" color-interpolation-filters="sRGB"/></filter><g/><clipPath id="74bd574601"><path d="M 2.699219 2.699219 L 372 2.699219 L 372 372 L 2.699219 372 Z M 2.699219 2.699219 " clip-rule="nonzero"/></clipPath><clipPath id="9e1525abd3"><path d="M 187.351562 2.699219 C 85.371094 2.699219 2.699219 85.371094 2.699219 187.351562 C 2.699219 289.328125 85.371094 372 187.351562 372 C 289.328125 372 372 289.328125 372 187.351562 C 372 85.371094 289.328125 2.699219 187.351562 2.699219 " clip-rule="nonzero"/></clipPath><clipPath id="6bc66e4599"><path d="M 2.699219 2.699219 L 371.699219 2.699219 L 371.699219 371.699219 L 2.699219 371.699219 Z M 2.699219 2.699219 " clip-rule="nonzero"/></clipPath><clipPath id="b0cf911ec5"><path d="M 187.199219 2.699219 C 85.304688 2.699219 2.699219 85.304688 2.699219 187.199219 C 2.699219 289.097656 85.304688 371.699219 187.199219 371.699219 C 289.097656 371.699219 371.699219 289.097656 371.699219 187.199219 C 371.699219 85.304688 289.097656 2.699219 187.199219 2.699219 " clip-rule="nonzero"/></clipPath><mask id="0618a9a49d"><g filter="url(#550c11843b)"><rect x="-37.5" width="450" fill="#000000" y="-37.499999" height="449.999989" fill-opacity="0.8"/></g></mask><clipPath id="05bee686a9"><rect x="0" width="238" y="0" height="145"/></clipPath><clipPath id="0c3cb87d96"><path d="M 284.875 185 L 364.375 185 L 364.375 193 L 284.875 193 Z M 284.875 185 " clip-rule="nonzero"/></clipPath><clipPath id="d4edbbd0f5"><path d="M 10.382812 185 L 88 185 L 88 193 L 10.382812 193 Z M 10.382812 185 " clip-rule="nonzero"/></clipPath><clipPath id="b125072a68"><path d="M 93 184 L 135.679688 184 L 135.679688 190 L 93 190 Z M 93 184 " clip-rule="nonzero"/></clipPath><clipPath id="edc01b2061"><path d="M 145.414062 184 L 202.414062 184 L 202.414062 192 L 145.414062 192 Z M 145.414062 184 " clip-rule="nonzero"/></clipPath><clipPath id="3d17a25c92"><path d="M 213.128906 184 L 274.605469 184 L 274.605469 192 L 213.128906 192 Z M 213.128906 184 " clip-rule="nonzero"/></clipPath></defs><g clip-path="url(#74bd574601)"><g clip-path="url(#9e1525abd3)"><path fill="#5e3f2c" d="M 2.699219 2.699219 L 372 2.699219 L 372 372 L 2.699219 372 Z M 2.699219 2.699219 " fill-opacity="1" fill-rule="nonzero"/></g></g><g clip-path="url(#6bc66e4599)"><g clip-path="url(#b0cf911ec5)"><path stroke-linecap="butt" transform="matrix(0.749405, 0, 0, 0.749405, 2.700004, 2.7)" fill="none" stroke-linejoin="miter" d="M 246.194278 -0.00104226 C 110.227029 -0.00104226 -0.00104826 110.227035 -0.00104826 246.194284 C -0.00104826 382.166744 110.227029 492.389609 246.194278 492.389609 C 382.166738 492.389609 492.389603 382.166744 492.389603 246.194284 C 492.389603 110.227035 382.166738 -0.00104226 246.194278 -0.00104226 " stroke="#bfa17f" stroke-width="8" stroke-opacity="1" stroke-miterlimit="4"/></g></g><g mask="url(#0618a9a49d)"><g transform="matrix(1, 0, 0, 1, 70, 115)"><g clip-path="url(#05bee686a9)"><g fill="#bfa17f" fill-opacity="1"><g transform="translate(0.474057, 111.92813)"><g><path d="M 3.734375 0 L 3.734375 -84.4375 L 37.546875 -84.4375 L 37.546875 -68.015625 L 20.734375 -68.015625 L 20.734375 -54.5625 L 36.671875 -54.5625 L 36.671875 -38.328125 L 20.734375 -38.328125 L 20.734375 0 Z M 3.734375 0 "/></g></g></g><g fill="#bfa17f" fill-opacity="1"><g transform="translate(46.869029, 111.92813)"><g><path d="M 23.890625 0.78125 C 17.066406 0.78125 11.882812 -1.296875 8.34375 -5.453125 C 4.8125 -9.617188 3.046875 -15.46875 3.046875 -23 L 3.046875 -63.203125 C 3.046875 -70.472656 4.8125 -75.957031 8.34375 -79.65625 C 11.882812 -83.363281 17.066406 -85.21875 23.890625 -85.21875 C 30.703125 -85.21875 35.875 -83.363281 39.40625 -79.65625 C 42.945312 -75.957031 44.71875 -70.472656 44.71875 -63.203125 L 44.71875 -23 C 44.71875 -15.394531 42.945312 -9.53125 39.40625 -5.40625 C 35.875 -1.28125 30.703125 0.78125 23.890625 0.78125 Z M 23.890625 -14.75 C 25.390625 -14.75 26.398438 -15.398438 26.921875 -16.703125 C 27.453125 -18.015625 27.71875 -19.851562 27.71875 -22.21875 L 27.71875 -63.5 C 27.71875 -65.332031 27.472656 -66.820312 26.984375 -67.96875 C 26.492188 -69.113281 25.492188 -69.6875 23.984375 -69.6875 C 21.160156 -69.6875 19.75 -67.554688 19.75 -63.296875 L 19.75 -22.109375 C 19.75 -19.691406 20.046875 -17.859375 20.640625 -16.609375 C 21.234375 -15.367188 22.316406 -14.75 23.890625 -14.75 Z M 23.890625 -14.75 "/></g></g></g><g fill="#bfa17f" fill-opacity="1"><g transform="translate(101.815585, 111.92813)"><g><path d="M 3.734375 0 L 3.734375 -84.4375 L 29.484375 -84.4375 L 36.5625 -32.921875 L 43.640625 -84.4375 L 69.59375 -84.4375 L 69.59375 0 L 54.15625 0 L 54.15625 -60.84375 L 44.4375 0 L 29.296875 0 L 18.96875 -60.84375 L 18.96875 0 Z M 3.734375 0 "/></g></g></g><g fill="#bfa17f" fill-opacity="1"><g transform="translate(182.318587, 111.92813)"><g><path d="M 23.890625 0.78125 C 17.066406 0.78125 11.882812 -1.296875 8.34375 -5.453125 C 4.8125 -9.617188 3.046875 -15.46875 3.046875 -23 L 3.046875 -63.203125 C 3.046875 -70.472656 4.8125 -75.957031 8.34375 -79.65625 C 11.882812 -83.363281 17.066406 -85.21875 23.890625 -85.21875 C 30.703125 -85.21875 35.875 -83.363281 39.40625 -79.65625 C 42.945312 -75.957031 44.71875 -70.472656 44.71875 -63.203125 L 44.71875 -23 C 44.71875 -15.394531 42.945312 -9.53125 39.40625 -5.40625 C 35.875 -1.28125 30.703125 0.78125 23.890625 0.78125 Z M 23.890625 -14.75 C 25.390625 -14.75 26.398438 -15.398438 26.921875 -16.703125 C 27.453125 -18.015625 27.71875 -19.851562 27.71875 -22.21875 L 27.71875 -63.5 C 27.71875 -65.332031 27.472656 -66.820312 26.984375 -67.96875 C 26.492188 -69.113281 25.492188 -69.6875 23.984375 -69.6875 C 21.160156 -69.6875 19.75 -67.554688 19.75 -63.296875 L 19.75 -22.109375 C 19.75 -19.691406 20.046875 -17.859375 20.640625 -16.609375 C 21.234375 -15.367188 22.316406 -14.75 23.890625 -14.75 Z M 23.890625 -14.75 "/></g></g></g></g></g></g><g fill="#432f1a" fill-opacity="1"><g transform="translate(86.279749, 194.411828)"><g><path d="M 8.070312 -6.417969 C 8.167969 -6.515625 8.070312 -6.679688 8.003906 -6.78125 C 7.90625 -6.878906 7.738281 -6.878906 7.640625 -6.8125 C 4.894531 -4.234375 2.546875 -3.835938 1.851562 -3.804688 C 1.953125 -4.332031 2.050781 -4.894531 2.183594 -5.425781 C 2.347656 -6.382812 2.546875 -7.242188 2.710938 -8.039062 L 2.710938 -8.070312 C 4.035156 -9.03125 5.589844 -10.683594 6.8125 -12.503906 C 7.609375 -13.628906 8.832031 -15.808594 8.765625 -17.5625 L 8.664062 -17.761719 C 8.664062 -18.421875 8.367188 -18.917969 7.90625 -19.25 C 6.78125 -20.144531 5.191406 -19.714844 4.003906 -18.160156 C 2.214844 -15.84375 0.695312 -11.214844 -0.132812 -5.457031 C -1.6875 4.199219 -0.925781 7.34375 0.59375 9.0625 C 1.257812 9.789062 2.082031 10.1875 2.878906 10.1875 C 3.140625 10.1875 3.375 10.15625 3.636719 10.089844 C 4.730469 9.722656 5.886719 8.367188 5.753906 5.65625 C 5.589844 1.621094 4.398438 -1.421875 2.316406 -3.339844 C 3.242188 -3.472656 5.425781 -4.035156 8.070312 -6.417969 Z M 5.257812 5.621094 C 5.359375 6.78125 5.160156 7.640625 4.761719 8.300781 C 4.332031 8.929688 3.804688 9.164062 3.207031 8.898438 C 2.449219 8.46875 1.753906 7.113281 1.457031 5.160156 C 1.191406 2.976562 1.257812 0.199219 1.785156 -3.175781 C 3.902344 -1.355469 5.09375 1.621094 5.257812 5.621094 Z M 7.542969 -18.488281 C 7.773438 -18.457031 8.167969 -18.058594 8.203125 -17.796875 C 8.203125 -17.730469 8.203125 -17.664062 8.269531 -17.597656 C 8.367188 -15.148438 5.457031 -10.914062 2.878906 -8.832031 C 4.828125 -17.695312 6.746094 -18.554688 7.507812 -18.488281 Z M 7.542969 -18.488281 "/></g></g></g><g fill="#432f1a" fill-opacity="1"><g transform="translate(95.341361, 194.411828)"><g/></g></g><g fill="#432f1a" fill-opacity="1"><g transform="translate(108.637689, 194.411828)"><g/></g></g><g fill="#432f1a" fill-opacity="1"><g transform="translate(121.934016, 194.411828)"><g/></g></g><g fill="#432f1a" fill-opacity="1"><g transform="translate(135.227002, 194.411828)"><g><path d="M 12.402344 -6.746094 C 12.335938 -6.847656 12.171875 -6.914062 12.074219 -6.8125 C 12.039062 -6.8125 9.460938 -5.191406 7.046875 -5.753906 C 7.375 -6.746094 7.507812 -7.773438 7.476562 -8.699219 C 7.375 -10.386719 6.679688 -11.578125 5.492188 -12.007812 C 4.761719 -12.269531 4.035156 -12.238281 3.308594 -11.875 C 1.917969 -11.148438 0.726562 -9.261719 0 -6.679688 C -0.628906 -4.433594 0.132812 -2.8125 1.023438 -2.050781 C 1.554688 -1.621094 2.148438 -1.421875 2.777344 -1.421875 C 3.207031 -1.421875 3.605469 -1.523438 4.003906 -1.71875 C 5.324219 -2.347656 6.316406 -3.738281 6.878906 -5.257812 C 7.277344 -5.191406 7.671875 -5.125 8.105469 -5.125 C 8.535156 -5.125 9.03125 -5.191406 9.527344 -5.292969 C 11.082031 -5.621094 12.269531 -6.382812 12.335938 -6.417969 C 12.4375 -6.484375 12.46875 -6.648438 12.402344 -6.746094 Z M 4.5 -2.613281 C 3.96875 -2.214844 3.40625 -2.183594 2.910156 -2.515625 C 2.183594 -3.011719 1.585938 -4.398438 2.214844 -6.746094 C 2.480469 -7.738281 2.878906 -8.601562 3.375 -9.261719 C 3.40625 -8.632812 3.636719 -7.773438 4.464844 -6.8125 C 4.996094 -6.183594 5.589844 -5.722656 6.316406 -5.457031 C 6.351562 -5.425781 6.382812 -5.425781 6.417969 -5.425781 C 5.988281 -4.300781 5.324219 -3.273438 4.5 -2.613281 Z M 6.582031 -5.886719 C 6.550781 -5.886719 6.515625 -5.886719 6.484375 -5.921875 C 5.988281 -6.117188 5.589844 -6.550781 5.359375 -7.144531 C 4.828125 -8.5 5.160156 -10.320312 5.359375 -10.882812 C 5.457031 -10.914062 5.523438 -10.914062 5.589844 -10.914062 C 6.054688 -10.980469 6.417969 -10.75 6.617188 -10.285156 C 6.878906 -9.722656 6.980469 -9.097656 6.980469 -8.664062 C 7.046875 -7.804688 6.878906 -6.8125 6.582031 -5.886719 Z M 6.582031 -5.886719 "/></g></g></g><g fill="#432f1a" fill-opacity="1"><g transform="translate(148.452898, 194.411828)"><g/></g></g><g fill="#432f1a" fill-opacity="1"><g transform="translate(161.749225, 194.411828)"><g/></g></g><g fill="#432f1a" fill-opacity="1"><g transform="translate(175.045553, 194.411828)"><g/></g></g><g fill="#432f1a" fill-opacity="1"><g transform="translate(188.341879, 194.411828)"><g/></g></g><g fill="#432f1a" fill-opacity="1"><g transform="translate(201.637218, 194.411828)"><g><path d="M 16.636719 -6.847656 C 16.503906 -6.914062 16.371094 -6.847656 16.308594 -6.746094 C 15.3125 -5.027344 14.621094 -4.101562 14.089844 -3.636719 C 14.089844 -3.636719 14.058594 -3.636719 14.058594 -3.605469 C 13.628906 -3.242188 13.363281 -3.175781 13.199219 -3.207031 C 12.765625 -3.273438 12.503906 -3.9375 12.371094 -4.464844 C 11.972656 -6.117188 12.667969 -8.535156 13.132812 -10.121094 C 13.394531 -11.015625 13.527344 -11.445312 13.496094 -11.675781 C 13.363281 -12.269531 12.765625 -13.199219 11.578125 -13.261719 C 10.683594 -13.328125 9.226562 -11.542969 8.796875 -11.015625 C 8.167969 -10.21875 7.671875 -9.394531 7.277344 -8.632812 C 7.375 -9.195312 7.507812 -9.722656 7.609375 -10.1875 C 7.839844 -11.179688 8.039062 -11.941406 7.871094 -12.636719 C 7.773438 -13.03125 7.308594 -13.460938 6.78125 -13.628906 C 6.316406 -13.761719 5.886719 -13.660156 5.558594 -13.328125 C 4.234375 -12.039062 2.777344 -8.964844 1.953125 -6.417969 C 2.183594 -8.566406 2.679688 -10.484375 3.339844 -12.074219 C 3.570312 -12.601562 3.40625 -13.199219 2.945312 -13.527344 L 2.480469 -13.859375 C 2.316406 -13.992188 2.117188 -14.023438 1.886719 -13.957031 C 1.6875 -13.890625 1.523438 -13.726562 1.457031 -13.527344 C 0.5625 -10.914062 -0.363281 -5.753906 -0.296875 -1.953125 C -0.265625 -1.324219 0.164062 -0.761719 0.792969 -0.628906 C 0.859375 -0.59375 0.925781 -0.59375 0.960938 -0.59375 C 1.15625 -0.59375 1.324219 -0.660156 1.457031 -0.761719 C 1.621094 -0.925781 1.71875 -1.125 1.71875 -1.390625 C 1.71875 -2.050781 1.71875 -2.746094 1.753906 -3.375 C 1.886719 -5.492188 3.902344 -10.78125 5.722656 -12.800781 L 5.753906 -12.800781 C 5.789062 -12.867188 5.886719 -12.898438 5.921875 -12.867188 C 5.988281 -12.832031 6.085938 -12.601562 5.921875 -12.074219 C 5.621094 -11.179688 4.828125 -8.003906 4.761719 -5.6875 C 4.761719 -5.359375 4.894531 -5.027344 5.125 -4.761719 C 5.359375 -4.53125 5.6875 -4.398438 6.054688 -4.398438 C 6.316406 -4.367188 6.582031 -4.5 6.78125 -4.664062 C 6.945312 -4.863281 7.046875 -5.09375 7.046875 -5.324219 C 7.011719 -5.789062 7.011719 -6.21875 7.046875 -6.648438 C 7.046875 -6.648438 7.078125 -6.679688 7.078125 -6.714844 C 7.507812 -8.964844 9.988281 -11.972656 11.148438 -12.636719 L 11.179688 -12.667969 C 11.214844 -12.667969 11.277344 -12.703125 11.34375 -12.636719 C 11.476562 -12.503906 11.542969 -12.140625 11.277344 -11.476562 C 10.882812 -10.417969 9.59375 -5.558594 10.484375 -3.539062 C 10.847656 -2.613281 11.511719 -2.347656 11.972656 -2.28125 C 12.074219 -2.25 12.171875 -2.25 12.304688 -2.25 C 13.03125 -2.25 13.859375 -2.644531 14.421875 -3.273438 L 14.421875 -3.308594 C 15.082031 -3.902344 15.84375 -4.960938 16.703125 -6.515625 C 16.769531 -6.617188 16.738281 -6.78125 16.636719 -6.847656 Z M 16.636719 -6.847656 "/></g></g></g><g fill="#432f1a" fill-opacity="1"><g transform="translate(219.427711, 194.411828)"><g/></g></g><g fill="#432f1a" fill-opacity="1"><g transform="translate(232.724039, 194.411828)"><g/></g></g><g fill="#432f1a" fill-opacity="1"><g transform="translate(246.020367, 194.411828)"><g/></g></g><g fill="#432f1a" fill-opacity="1"><g transform="translate(259.316693, 194.411828)"><g/></g></g><g fill="#432f1a" fill-opacity="1"><g transform="translate(272.612032, 194.411828)"><g><path d="M 12.402344 -6.746094 C 12.335938 -6.847656 12.171875 -6.914062 12.074219 -6.8125 C 12.039062 -6.8125 9.460938 -5.191406 7.046875 -5.753906 C 7.375 -6.746094 7.507812 -7.773438 7.476562 -8.699219 C 7.375 -10.386719 6.679688 -11.578125 5.492188 -12.007812 C 4.761719 -12.269531 4.035156 -12.238281 3.308594 -11.875 C 1.917969 -11.148438 0.726562 -9.261719 0 -6.679688 C -0.628906 -4.433594 0.132812 -2.8125 1.023438 -2.050781 C 1.554688 -1.621094 2.148438 -1.421875 2.777344 -1.421875 C 3.207031 -1.421875 3.605469 -1.523438 4.003906 -1.71875 C 5.324219 -2.347656 6.316406 -3.738281 6.878906 -5.257812 C 7.277344 -5.191406 7.671875 -5.125 8.105469 -5.125 C 8.535156 -5.125 9.03125 -5.191406 9.527344 -5.292969 C 11.082031 -5.621094 12.269531 -6.382812 12.335938 -6.417969 C 12.4375 -6.484375 12.46875 -6.648438 12.402344 -6.746094 Z M 4.5 -2.613281 C 3.96875 -2.214844 3.40625 -2.183594 2.910156 -2.515625 C 2.183594 -3.011719 1.585938 -4.398438 2.214844 -6.746094 C 2.480469 -7.738281 2.878906 -8.601562 3.375 -9.261719 C 3.40625 -8.632812 3.636719 -7.773438 4.464844 -6.8125 C 4.996094 -6.183594 5.589844 -5.722656 6.316406 -5.457031 C 6.351562 -5.425781 6.382812 -5.425781 6.417969 -5.425781 C 5.988281 -4.300781 5.324219 -3.273438 4.5 -2.613281 Z M 6.582031 -5.886719 C 6.550781 -5.886719 6.515625 -5.886719 6.484375 -5.921875 C 5.988281 -6.117188 5.589844 -6.550781 5.359375 -7.144531 C 4.828125 -8.5 5.160156 -10.320312 5.359375 -10.882812 C 5.457031 -10.914062 5.523438 -10.914062 5.589844 -10.914062 C 6.054688 -10.980469 6.417969 -10.75 6.617188 -10.285156 C 6.878906 -9.722656 6.980469 -9.097656 6.980469 -8.664062 C 7.046875 -7.804688 6.878906 -6.8125 6.582031 -5.886719 Z M 6.582031 -5.886719 "/></g></g></g><g clip-path="url(#0c3cb87d96)"><path fill="#432f1a" d="M 283.441406 189.898438 C 283.214844 190.242188 282.914062 189.972656 283.105469 189.667969 C 290.273438 178.53125 294.769531 193.640625 309.175781 192.371094 C 331.355469 190.417969 349.898438 184.183594 363.699219 189.550781 C 364.660156 189.925781 363.984375 190.710938 363.171875 190.34375 C 351.6875 185.152344 330.347656 190.589844 309.078125 192.792969 C 294.664062 194.285156 290.59375 178.941406 283.441406 189.898438 Z M 283.441406 189.898438 " fill-opacity="1" fill-rule="nonzero"/></g><g clip-path="url(#d4edbbd0f5)"><path fill="#432f1a" d="M 87.542969 189.355469 C 87.757812 189.6875 88.046875 189.425781 87.863281 189.136719 C 81.023438 178.53125 76.734375 192.921875 62.988281 191.714844 C 41.820312 189.851562 24.128906 183.917969 10.960938 189.027344 C 10.042969 189.382812 10.6875 190.132812 11.460938 189.78125 C 22.421875 184.835938 42.785156 190.015625 63.078125 192.113281 C 76.832031 193.535156 80.71875 178.921875 87.542969 189.355469 Z M 87.542969 189.355469 " fill-opacity="1" fill-rule="nonzero"/></g><g clip-path="url(#b125072a68)"><path fill="#432f1a" d="M 150.371094 187.582031 C 150.53125 187.828125 150.746094 187.632812 150.609375 187.417969 C 145.546875 179.460938 142.371094 190.253906 132.191406 189.347656 C 116.519531 187.953125 103.421875 183.5 93.671875 187.332031 C 92.992188 187.601562 93.46875 188.160156 94.042969 187.898438 C 102.160156 184.191406 117.234375 188.074219 132.261719 189.648438 C 142.441406 190.714844 145.320312 179.757812 150.371094 187.582031 Z M 150.371094 187.582031 " fill-opacity="1" fill-rule="nonzero"/></g><g clip-path="url(#edc01b2061)"><path fill="#432f1a" d="M 221.957031 188.410156 C 222.171875 188.738281 222.457031 188.480469 222.273438 188.191406 C 215.5 177.589844 211.253906 191.972656 197.640625 190.765625 C 176.675781 188.90625 159.152344 182.972656 146.113281 188.082031 C 145.203125 188.4375 145.84375 189.183594 146.609375 188.835938 C 157.464844 183.890625 177.628906 189.070312 197.730469 191.167969 C 211.351562 192.585938 215.199219 177.980469 221.957031 188.410156 Z M 221.957031 188.410156 " fill-opacity="1" fill-rule="nonzero"/></g><g clip-path="url(#3d17a25c92)"><path fill="#432f1a" d="M 295.089844 188.953125 C 295.316406 189.296875 295.621094 189.027344 295.425781 188.722656 C 288.195312 177.585938 283.65625 192.695312 269.117188 191.425781 C 246.730469 189.472656 228.015625 183.242188 214.089844 188.605469 C 213.117188 188.980469 213.800781 189.765625 214.621094 189.398438 C 226.210938 184.207031 247.746094 189.644531 269.214844 191.847656 C 283.761719 193.339844 287.871094 178 295.089844 188.953125 Z M 295.089844 188.953125 " fill-opacity="1" fill-rule="nonzero"/></g></svg>